<svg width="35" height="43" viewBox="0 0 35 43" fill="none" xmlns="http://www.w3.org/2000/svg">
<g clip-path="url(#clip0_1_58)">
<g clip-path="url(#clip1_1_58)">
<path d="M34.6092 30.6093C34.3819 31.2477 34.1439 31.8823 33.8952 32.5127C33.2855 33.9052 32.5469 35.2376 31.6892 36.4927C30.5214 38.1578 29.5692 39.3048 28.8335 39.9317C27.7092 40.97 26.4762 41.5109 25.1779 41.5326C24.2484 41.5326 23.1231 41.2726 21.8041 40.7317C20.485 40.1918 19.2727 39.9317 18.1702 39.9317C17.0024 39.9317 15.7694 40.1918 14.4285 40.7327C13.0867 41.2726 12.0277 41.5534 11.205 41.5761C9.95121 41.6187 8.71817 41.0788 7.46337 39.9317C6.66243 39.2396 5.66769 38.05 4.47815 36.3621C3.20259 34.5675 2.14259 32.491 1.3199 30.1119C0.432934 27.538 0.000823975 25.0502 0.000823975 22.6493C0.000823975 19.9024 0.606964 17.5233 1.7965 15.5329C2.69665 13.9698 3.98556 12.6659 5.53816 11.7477C7.06649 10.8257 8.815 10.3325 10.5999 10.3199C11.5946 10.3199 12.8929 10.6234 14.5156 11.2286C16.1372 11.8347 17.1755 12.1373 17.6303 12.1373C17.9764 12.1373 19.1214 11.7695 21.0684 11.0555C22.9076 10.3851 24.465 10.1261 25.7405 10.2338C29.2014 10.5147 31.797 11.8772 33.5274 14.3216C30.4344 16.2033 28.8988 18.8207 28.9423 22.1955C28.964 24.8119 29.9153 26.9971 31.797 28.7275C32.6038 29.5308 33.5588 30.1699 34.6092 30.6093ZM25.9136 0.5C25.9353 0.780822 25.9571 1.04088 25.9571 1.3217C25.9571 3.37645 25.1996 5.30166 23.7075 7.07558C21.8901 9.19559 19.7058 10.4069 17.3485 10.2121C17.322 9.95317 17.3075 9.69317 17.305 9.43291C17.305 7.46517 18.1702 5.34517 19.6841 3.61475C20.4415 2.74954 21.4145 2.01387 22.5823 1.42948C23.7728 0.867837 24.8763 0.543508 25.9146 0.5L25.9136 0.5Z" fill="#333333"/>
</g>
</g>
<defs>
<clipPath id="clip0_1_58">
<rect width="34.61" height="41.53" fill="white" transform="translate(0 0.5)"/>
</clipPath>
<clipPath id="clip1_1_58">
<rect width="34.6083" height="41.53" fill="white" transform="translate(0.000823975 0.5)"/>
</clipPath>
</defs>
</svg>
